<mxfile host="app.diagrams.net" agent="Mozilla/5.0 (Windows NT 10.0; Win64; x64) AppleWebKit/537.36 (KHTML, like Gecko) Chrome/126.0.0.0 Safari/537.36" version="24.7.7">
  <diagram name="Trang-1" id="ZTjUGWj8MfJZq00Bett6">
    <mxGraphModel dx="1034" dy="449" grid="0" gridSize="10" guides="1" tooltips="1" connect="1" arrows="1" fold="1" page="1" pageScale="1" pageWidth="827" pageHeight="1169" math="0" shadow="0">
      <root>
        <mxCell id="0" />
        <mxCell id="1" parent="0" />
        <mxCell id="Kn3Lldye2FB-5q7pskft-1" value="admin" style="shape=umlActor;verticalLabelPosition=bottom;verticalAlign=top;html=1;outlineConnect=0;" vertex="1" parent="1">
          <mxGeometry x="206" y="182" width="30" height="60" as="geometry" />
        </mxCell>
        <mxCell id="Kn3Lldye2FB-5q7pskft-2" value="crud" style="ellipse;whiteSpace=wrap;html=1;" vertex="1" parent="1">
          <mxGeometry x="244" y="122" width="120" height="80" as="geometry" />
        </mxCell>
        <mxCell id="Kn3Lldye2FB-5q7pskft-3" value="kiểm duyệt diễn đàn" style="ellipse;whiteSpace=wrap;html=1;" vertex="1" parent="1">
          <mxGeometry x="244" y="224" width="120" height="80" as="geometry" />
        </mxCell>
        <mxCell id="Kn3Lldye2FB-5q7pskft-4" value="Xem các khóa tập" style="ellipse;whiteSpace=wrap;html=1;" vertex="1" parent="1">
          <mxGeometry x="500" y="151" width="120" height="80" as="geometry" />
        </mxCell>
        <mxCell id="Kn3Lldye2FB-5q7pskft-5" value="user" style="shape=umlActor;verticalLabelPosition=bottom;verticalAlign=top;html=1;outlineConnect=0;" vertex="1" parent="1">
          <mxGeometry x="642" y="317" width="30" height="60" as="geometry" />
        </mxCell>
        <mxCell id="Kn3Lldye2FB-5q7pskft-6" value="guest" style="shape=umlActor;verticalLabelPosition=bottom;verticalAlign=top;html=1;outlineConnect=0;" vertex="1" parent="1">
          <mxGeometry x="198" y="416" width="30" height="60" as="geometry" />
        </mxCell>
        <mxCell id="Kn3Lldye2FB-5q7pskft-10" value="đề xuất khóa phù hợp" style="ellipse;whiteSpace=wrap;html=1;" vertex="1" parent="1">
          <mxGeometry x="498" y="264" width="120" height="80" as="geometry" />
        </mxCell>
        <mxCell id="Kn3Lldye2FB-5q7pskft-11" value="Trao đổi trên diễn đàn" style="ellipse;whiteSpace=wrap;html=1;" vertex="1" parent="1">
          <mxGeometry x="498" y="368" width="120" height="80" as="geometry" />
        </mxCell>
        <mxCell id="Kn3Lldye2FB-5q7pskft-12" value="Xem vài khóa cơ bản" style="ellipse;whiteSpace=wrap;html=1;" vertex="1" parent="1">
          <mxGeometry x="246" y="355" width="120" height="80" as="geometry" />
        </mxCell>
        <mxCell id="Kn3Lldye2FB-5q7pskft-13" value="Trao đổi trên diễn dàn" style="ellipse;whiteSpace=wrap;html=1;" vertex="1" parent="1">
          <mxGeometry x="246" y="460" width="120" height="80" as="geometry" />
        </mxCell>
        <mxCell id="Kn3Lldye2FB-5q7pskft-15" value="đăng ký khóa" style="ellipse;whiteSpace=wrap;html=1;" vertex="1" parent="1">
          <mxGeometry x="500" y="472" width="120" height="80" as="geometry" />
        </mxCell>
      </root>
    </mxGraphModel>
  </diagram>
</mxfile>
